<?xml version="1.0" encoding="utf-8"?>
<svg fill="#000000" height="24" width="24" version="1.1" xmlns="http://www.w3.org/2000/svg" xmlns:xlink="http://www.w3.org/1999/xlink" viewBox="0 0 64 64" enable-background="new 0 0 64 64" xml:space="preserve">
  <g id="Certificate">
    <path d="M58.35,4.14H5.65C2.53,4.14,0,6.68,0,9.79v36.53c0,3.12,2.53,5.65,5.65,5.65h18.11c0.55,0,1-0.45,1-1s-0.45-1-1-1H5.65C3.64,49.97,2,48.33,2,46.32V9.79C2,7.78,3.64,6.14,5.65,6.14h52.7c2.01,0,3.65,1.64,3.65,3.65v36.53c0,2.01-1.64,3.65-3.65,3.65c-0.55,0-1,0.45-1,1s0.45,1,1,1C61.46,51.97,64,49.44,64,46.32V9.79C64,6.68,61.46,4.14,58.35,4.14z"/>
    <path d="M22,32.14H10c-0.55,0-1,0.45-1,1s0.45,1,1,1h12c0.55,0,1-0.45,1-1S22.55,32.14,22,32.14z"/>
    <path d="M22,38.69H10c-0.55,0-1,0.45-1,1s0.45,1,1,1h12c0.55,0,1-0.45,1-1S22.55,38.69,22,38.69z"/>
    <path d="M51.74,42c-0.02-0.06-0.06-0.11-0.09-0.17C53.73,39.53,55,36.49,55,33.14c0-7.18-5.82-13-13-13s-13,5.82-13,13c0,3.31,1.25,6.32,3.28,8.61c-0.02,0.05-0.05,0.08-0.07,0.13L28,56.31c-0.11,0.38,0.01,0.79,0.31,1.04c0.3,0.26,0.72,0.31,1.08,0.14l4.42-2.1l2.77,4.02c0.19,0.27,0.5,0.43,0.82,0.43c0.06,0,0.11-0.01,0.17-0.01c0.38-0.07,0.7-0.35,0.8-0.73l3.48-12.98c0.05,0,0.08,0.01,0.12,0.01l3.48,12.98c0.1,0.38,0.41,0.66,0.8,0.73c0.06,0.01,0.11,0.01,0.17,0.01c0.32,0,0.63-0.16,0.82-0.43l2.78-4l4.41,2.08c0.35,0.17,0.78,0.11,1.08-0.14c0.3-0.26,0.42-0.66,0.31-1.04L51.74,42z M42,22.14c6.07,0,11,4.93,11,11s-4.93,11-11,11s-11-4.93-11-11S35.93,22.14,42,22.14z M37,56.51l-2.03-2.94c-0.28-0.4-0.81-0.55-1.25-0.34l-3.17,1.51l3.34-11.44c1.69,1.35,3.72,2.28,5.94,2.66L37,56.51z M50.21,53.25c-0.44-0.21-0.97-0.07-1.25,0.33l-2.04,2.93L44.09,45.96c2.22-0.36,4.26-1.28,5.95-2.62l3.33,11.4L50.21,53.25z"/>
    <path d="M23,15.14c0-1.1-0.9-2-2-2H11c-1.1,0-2,0.9-2,2v10c0,1.1,0.9,2,2,2h10c1.1,0,2-0.9,2-2V15.14z M21,25.14H11v-10h10V25.14z"/>
    <path d="M42,39.14c3.31,0,6-2.69,6-6c0-3.31-2.69-6-6-6s-6,2.69-6,6C36,36.46,38.69,39.14,42,39.14z M42,29.14c2.21,0,4,1.79,4,4c0,2.21-1.79,4-4,4s-4-1.79-4-4C38,30.94,39.79,29.14,42,29.14z"/>
  </g>
</svg>
